<?xml version="1.0" encoding="UTF-8" standalone="no"?>
<svg
   xmlns:dc="http://purl.org/dc/elements/1.1/"
   xmlns:cc="http://creativecommons.org/ns#"
   xmlns:rdf="http://www.w3.org/1999/02/22-rdf-syntax-ns#"
   xmlns:svg="http://www.w3.org/2000/svg"
   xmlns="http://www.w3.org/2000/svg"
   xmlns:sodipodi="http://sodipodi.sourceforge.net/DTD/sodipodi-0.dtd"
   xmlns:inkscape="http://www.inkscape.org/namespaces/inkscape"
   width="210mm"
   height="297mm"
   viewBox="0 0 210 297"
   version="1.1"
   id="svg1929"
   inkscape:version="1.0.2-2 (e86c870879, 2021-01-15)"
   sodipodi:docname="diamondlogo.svg">
  <defs
     id="defs1923" />
  <sodipodi:namedview
     id="base"
     pagecolor="#ffffff"
     bordercolor="#666666"
     borderopacity="1.0"
     inkscape:pageopacity="0.0"
     inkscape:pageshadow="2"
     inkscape:zoom="0.60925568"
     inkscape:cx="1046.6225"
     inkscape:cy="13.844142"
     inkscape:document-units="mm"
     inkscape:current-layer="g2075"
     inkscape:document-rotation="0"
     showgrid="false"
     inkscape:window-width="1920"
     inkscape:window-height="1027"
     inkscape:window-x="1912"
     inkscape:window-y="6"
     inkscape:window-maximized="1" />
  <metadata
     id="metadata1926">
    <rdf:RDF>
      <cc:Work
         rdf:about="">
        <dc:format>image/svg+xml</dc:format>
        <dc:type
           rdf:resource="http://purl.org/dc/dcmitype/StillImage" />
        <dc:title></dc:title>
      </cc:Work>
    </rdf:RDF>
  </metadata>
  <g
     inkscape:label="Layer 1"
     inkscape:groupmode="layer"
     id="layer1">
    <g
       id="g2075"
       transform="matrix(1.7683201,0,0,1.7683201,-11.695631,-61.433841)">
      <g
         id="g2000"
         style="display:inline"
         transform="matrix(0.03758442,0,0,0.03758442,119.99468,22.574303)">
        <path
           style="fill:#d4aa00"
           d="m -621.39102,497.79935 c -0.22902,-0.6875 -6.54256,-20.15 -14.0301,-43.25 -7.48754,-23.1 -14.56712,-44.80642 -15.73239,-48.2365 -1.16528,-3.43008 -1.88323,-6.47195 -1.59546,-6.75972 0.39698,-0.39698 38.95115,17.68365 40.68677,19.08075 0.19232,0.15481 -0.2237,1.99912 -0.92448,4.09847 -1.7967,5.38238 -1.58443,14.89916 0.46922,21.03724 2.21515,6.62078 9.26938,14.56033 15.998,18.00578 7.31271,3.74453 18.87715,4.30918 26.82858,1.30993 7.24544,-2.73295 14.06605,-9.2608 17.56976,-16.81561 5.16761,-11.14258 2.90191,-27.35031 -4.86331,-34.78986 -1.61009,-1.54257 -2.91405,-3.28297 -2.89769,-3.86757 0.0164,-0.5846 2.76345,-2.62893 6.10466,-4.54295 12.36766,-7.08486 29.52995,-23.2421 35.75501,-33.66114 1.08247,-1.81176 1.13871,-1.81176 2.22118,0 6.22506,10.41904 23.38735,26.57628 35.75501,33.66114 3.34121,1.91402 6.0883,3.95835 6.10466,4.54295 0.0164,0.5846 -1.2876,2.325 -2.89769,3.86757 -7.77584,7.44972 -10.10451,23.66632 -4.97066,34.61515 3.43879,7.33381 7.60267,11.92024 14.07924,15.50797 4.89403,2.71107 6.11755,2.94634 15.31885,2.94563 8.92714,-6.9e-4 10.54798,-0.28979 15.1076,-2.69469 14.86813,-7.84194 21.74934,-25.68101 15.84314,-41.07231 -0.57019,-1.48589 2.52571,-3.32239 19.6778,-11.67294 11.19495,-5.4503 20.51205,-9.75203 20.70466,-9.55942 0.19262,0.19262 -1.29939,5.44644 -3.31559,11.67517 -3.33804,10.31238 -27.09148,83.62988 -28.0486,86.57496 -0.32154,0.98939 -22.10212,1.25 -104.46901,1.25 -82.36147,0 -104.1496,-0.26068 -104.47916,-1.25 z"
           id="path99" />
        <path
           style="fill:#3cfcfc;fill-opacity:1"
           d="m -470.25547,549.11028 c -19.06101,-21.41648 -34.65639,-39.19148 -34.65639,-39.5 0,-0.30851 31.275,-0.56093 69.5,-0.56093 38.225,0 69.49499,0.3375 69.48887,0.75 -0.006,0.4125 -10.83893,12.9 -24.0729,27.75 -13.23398,14.85 -28.64147,32.25549 -34.23887,38.67886 -5.59741,6.42337 -10.44422,11.71087 -10.77071,11.75 -0.32648,0.0391 -16.18898,-17.45144 -35.25,-38.86793 z"
           id="path97" />
        <path
           style="fill:#00c0e8;fill-opacity:1"
           d="m -633.39393,549.52325 c -18.69014,-21.10148 -34.14014,-38.84052 -34.33333,-39.42011 -0.24389,-0.73166 20.91971,-1.05379 69.23207,-1.05379 38.27083,0 69.58333,0.25389 69.58333,0.5642 0,0.31031 -3.4875,4.49592 -7.75,9.30136 -42.74632,48.19117 -61.57176,69.12164 -62.10958,69.05455 -0.35223,-0.0439 -15.93235,-17.34473 -34.62249,-38.44621 z"
           id="path95" />
        <path
           style="fill:#3cfcfc;fill-opacity:1"
           d="m -422.91186,590.46466 c 0,-1.37272 69.42567,-78.38064 70.03509,-77.68389 1.48419,1.69686 65.43094,73.92555 67.30207,76.01858 l 2.01147,2.25 h -69.67432 c -38.32087,0 -69.67431,-0.26311 -69.67431,-0.58469 z"
           id="path93" />
        <path
           style="fill:#00c0e8;fill-opacity:1"
           d="m -583.26593,586.5679 c 11.44607,-13.30932 65.92878,-74.39143 66.35407,-74.39143 0.42529,0 54.908,61.08211 66.35407,74.39143 l 3.85406,4.48145 h -70.20813 -70.20813 z"
           id="path91" />
        <path
           style="fill:#0094d8;fill-opacity:1"
           d="m -748.7843,589.29935 c 0.75484,-0.9625 10.14744,-11.60987 20.87244,-23.66083 10.725,-12.05096 25.0629,-28.25096 31.862,-36 6.79911,-7.74904 13.14905,-14.91411 14.11098,-15.92237 1.68083,-1.76177 3.08894,-0.32598 36.138,36.84844 18.91396,21.27491 34.53902,39.08735 34.72235,39.5832 0.19595,0.52998 -28.39641,0.90156 -69.37244,0.90156 -66.24263,0 -69.63759,-0.0869 -68.33333,-1.75 z"
           id="path89" />
        <path
           style="fill:#3cfcfc;fill-opacity:1"
           d="m -468.20023,710.54935 36.51881,-109.5 h 72.88478 c 40.08663,0 72.88478,0.33827 72.88478,0.75172 0,0.91783 -217.23786,218.24828 -218.1553,218.24828 -0.35853,0 15.78159,-49.275 35.86693,-109.5 z"
           id="path87" />
        <path
           style="fill:#0094d8;fill-opacity:1"
           d="m -639.66186,710.80771 c -60.0875,-60.08145 -109.25,-109.35586 -109.25,-109.49868 0,-0.14282 33.0375,-0.25968 73.41667,-0.25968 h 73.41668 l 36.16665,108.25 c 19.89166,59.5375 36.39166,108.8125 36.66666,109.5 0.27501,0.6875 0.12501,1.24941 -0.33333,1.24868 -0.45833,-7.2e-4 -49.99583,-49.15887 -110.08333,-109.24032 z"
           id="path85" />
        <path
           style="fill:#00c0e8;fill-opacity:1"
           d="m -554.24194,713.15073 c -20.16846,-60.44425 -36.66992,-110.39425 -36.66992,-111 0,-0.79192 20.79245,-1.10138 74,-1.10138 53.20755,0 74,0.30946 74,1.10138 0,2.00858 -73.32713,220.89862 -74,220.89862 -0.36309,0 -17.16163,-49.45438 -37.33008,-109.89862 z"
           id="path80" />
      </g>
      <path
         style="fill:#ffffff;stroke-width:0.123232"
         d="M 36.775226,75.643216 V 75.33514 h 31.917101 31.917093 v 0.308076 0.308081 H 68.692327 36.775226 Z m -3.514691,-3.503709 c -1.006575,-0.240532 -1.597629,-1.044259 -1.598718,-2.173962 -8.85e-4,-0.909871 0.403205,-1.619831 1.113882,-1.95707 0.660932,-0.313634 1.788275,-0.219486 2.219181,0.185328 l 0.317974,0.298721 -0.267198,0.216363 c -0.255938,0.207247 -0.280354,0.206016 -0.579369,-0.02919 -0.809757,-0.636955 -2.127414,0.163697 -2.127414,1.292684 0,1.214611 1.3649,1.993737 2.259687,1.289896 0.256689,-0.201911 0.371421,-0.225795 0.571164,-0.118894 0.306307,0.163929 0.313788,0.27768 0.03429,0.521473 -0.496229,0.432853 -1.29848,0.628784 -1.943483,0.47465 z m 10.467279,-0.01765 c -0.208846,-0.06064 -0.479812,-0.220859 -0.602148,-0.356036 -0.215381,-0.237993 -0.213462,-0.253042 0.06063,-0.47499 0.274818,-0.222535 0.289661,-0.22261 0.509724,-0.0028 0.426461,0.426463 1.335751,0.210584 1.335751,-0.317126 0,-0.348355 -0.132361,-0.457944 -0.892107,-0.738615 -1.093909,-0.404115 -1.424774,-1.348957 -0.719388,-2.054341 0.311144,-0.311143 0.452906,-0.360216 1.040599,-0.360216 0.52968,0 0.752413,0.06196 1.005574,0.279715 l 0.32519,0.279716 -0.256703,0.232312 c -0.239463,0.216711 -0.271835,0.218616 -0.48206,0.02837 -0.439825,-0.398031 -1.253425,-0.169698 -1.253425,0.351772 0,0.310664 0.351192,0.563955 0.995461,0.717953 1.290461,0.308459 1.301766,2.061152 0.0156,2.418361 -0.523017,0.145261 -0.568167,0.145079 -1.082697,-0.0042 z m 14.941254,-0.01449 c -0.988251,-0.269731 -1.677864,-1.411361 -1.505119,-2.49167 0.192089,-1.201254 1.057925,-1.857561 2.34268,-1.775755 0.929049,0.05916 1.416381,0.373263 1.796101,1.157662 0.845543,1.746659 -0.745354,3.625148 -2.633662,3.109763 z m 1.386518,-0.771861 c 0.388429,-0.200867 0.74989,-0.856879 0.74989,-1.36098 0,-0.845092 -0.690804,-1.540403 -1.530418,-1.540403 -0.635919,0 -1.295015,0.621361 -1.387063,1.307659 -0.172871,1.288825 1.036994,2.178378 2.167591,1.593724 z m 26.803441,0.786327 c -0.208847,-0.06064 -0.479811,-0.220858 -0.602149,-0.356035 -0.215376,-0.237993 -0.213458,-0.253043 0.06063,-0.47499 0.274819,-0.222535 0.28966,-0.22261 0.509724,-0.0028 0.43671,0.436705 1.33575,0.209634 1.33575,-0.337372 0,-0.261938 -0.124811,-0.364899 -0.821026,-0.67727 -0.963967,-0.432499 -1.141484,-0.628108 -1.146762,-1.263623 -0.003,-0.36006 0.08127,-0.556797 0.356292,-0.831817 0.30988,-0.309879 0.453936,-0.360217 1.030854,-0.360217 0.50251,0 0.756265,0.06735 1.01218,0.268659 l 0.341546,0.268659 -0.280893,0.227454 c -0.252758,0.204666 -0.301709,0.208616 -0.488672,0.03942 -0.262918,-0.237937 -0.91292,-0.243791 -1.106979,-0.01 -0.314313,0.378724 -0.102166,0.731065 0.610532,1.013998 0.961617,0.381754 1.232321,0.655598 1.232321,1.246632 0,0.617954 -0.358908,1.08621 -0.960655,1.253334 -0.523019,0.145261 -0.568163,0.145079 -1.082698,-0.0042 z m 5.755448,0.0087 c -0.489103,-0.115098 -0.947532,-0.43547 -1.301457,-0.909506 -0.201994,-0.27055 -0.254074,-0.523573 -0.254074,-1.234298 0,-0.789394 0.04038,-0.946949 0.345259,-1.346645 0.467856,-0.613394 0.921503,-0.822097 1.786959,-0.822097 0.834291,0 1.37443,0.28671 1.839081,0.976205 0.313752,0.465577 0.39241,1.656479 0.141577,2.143505 -0.484941,0.941573 -1.537945,1.43273 -2.557345,1.192836 z m 1.451871,-0.932659 c 1.016119,-0.855012 0.582561,-2.55433 -0.695447,-2.725746 -1.023014,-0.137215 -1.710285,0.605415 -1.602115,1.731165 0.04788,0.498059 0.135325,0.686994 0.446976,0.965448 0.527334,0.471176 1.310595,0.483509 1.850586,0.02916 z m -56.877145,0.532729 c 0.09395,-0.220281 0.517789,-1.190731 0.941865,-2.156562 1.051174,-2.394049 1.04038,-2.395562 2.197392,0.308081 0.485837,1.135274 0.883291,2.105729 0.88323,2.156562 -5.9e-5,0.05084 -0.158049,0.09242 -0.351089,0.09242 -0.290275,0 -0.389424,-0.08525 -0.573259,-0.492927 l -0.222281,-0.492926 -0.936331,0.0014 -0.936333,0.0014 -0.206505,0.491674 c -0.177521,0.422658 -0.259909,0.491665 -0.587006,0.491665 h -0.380501 l 0.170818,-0.400502 z m 2.472362,-1.601507 c -0.04831,-0.152215 -0.1845,-0.498805 -0.302642,-0.770199 -0.213536,-0.490532 -0.215524,-0.491625 -0.33713,-0.185361 -0.06728,0.169444 -0.20927,0.516037 -0.315533,0.770202 l -0.193207,0.462121 h 0.618176 c 0.584653,0 0.613413,-0.015 0.530336,-0.276763 z m 8.451012,-0.154553 v -2.15656 h 0.30808 0.30808 v 2.15656 2.156561 h -0.30808 -0.30808 z m 3.13123,1.986997 c -0.03577,-0.09326 -0.04791,-1.049849 -0.02692,-2.125751 l 0.03815,-1.95619 h 0.395671 c 0.367745,0 0.469658,0.107812 1.444039,1.527617 l 1.048368,1.527619 0.03475,-1.527619 0.03475,-1.527617 0.338887,-0.03899 0.33889,-0.03899 v 2.172553 2.172556 l -0.400506,-0.03861 c -0.359603,-0.03465 -0.507472,-0.193317 -1.447974,-1.55352 l -1.047473,-1.514902 -0.03446,1.545712 -0.03446,1.54571 h -0.308268 c -0.169545,0 -0.337544,-0.0763 -0.373333,-0.169565 z m 16.102429,-0.149471 c -0.319673,-0.268985 -0.379157,-0.405802 -0.379157,-0.872101 0,-0.445391 0.06926,-0.622333 0.355744,-0.908817 0.312046,-0.312044 0.335235,-0.382779 0.188769,-0.575873 -0.273697,-0.360819 -0.213139,-0.994014 0.127663,-1.334816 0.653946,-0.653948 1.915696,-0.213782 1.915696,0.668296 0,0.240772 -0.124256,0.490076 -0.363506,0.729327 l -0.363507,0.363506 0.279028,0.262134 c 0.361901,0.33999 0.405197,0.332631 0.632835,-0.107567 0.14741,-0.285058 0.27509,-0.369696 0.557707,-0.369696 0.201598,0 0.36653,0.03675 0.36653,0.08164 0,0.0449 -0.174419,0.353451 -0.387605,0.685667 l -0.387611,0.604033 0.536503,0.546652 0.536496,0.546652 h -0.499488 c -0.336917,0 -0.569532,-0.07739 -0.714692,-0.237802 -0.21249,-0.234798 -0.220135,-0.234803 -0.604451,-4.66e-4 -0.569987,0.347549 -1.328448,0.313456 -1.796954,-0.08077 z m 1.452704,-0.496527 0.284684,-0.199401 -0.466098,-0.477324 -0.466091,-0.477323 -0.284099,0.266894 c -0.336262,0.315901 -0.358394,0.553735 -0.08015,0.861197 0.252079,0.278542 0.637039,0.288421 1.011756,0.02594 z m -0.0694,-2.279297 c 0.17188,-0.27297 0.02226,-0.602102 -0.273685,-0.602102 -0.322684,0 -0.519441,0.355019 -0.360921,0.651221 0.140379,0.262306 0.453788,0.238049 0.634606,-0.04912 z m 7.384612,0.969108 0.03371,-2.125754 0.431308,-0.04104 c 0.825389,-0.07853 1.741148,0.107344 2.049865,0.416064 0.54796,0.547962 0.286968,1.680366 -0.443405,1.923823 -0.121959,0.04066 -0.05101,0.235813 0.265574,0.730756 0.786155,1.228957 0.784324,1.221895 0.316403,1.221895 -0.377002,0 -0.44988,-0.07044 -0.956109,-0.924237 -0.354392,-0.59769 -0.625356,-0.924243 -0.766933,-0.924243 -0.190287,0 -0.21893,0.120911 -0.21893,0.924243 v 0.924237 h -0.372604 -0.37261 z m 1.750942,-0.459071 c 0.239628,-0.09111 0.316102,-0.207168 0.316102,-0.479744 0,-0.41014 -0.169725,-0.509163 -0.872705,-0.509163 h -0.482846 v 0.554544 c 0,0.531273 0.01517,0.554543 0.361677,0.554543 0.198918,0 0.503915,-0.05408 0.677772,-0.12018 z m 3.424802,0.459071 0.03371,-2.125754 1.324746,-0.03498 1.324741,-0.03498 v 0.373864 0.373865 H 82.987237 82.00138 v 0.492929 0.492927 h 0.924243 0.924236 v 0.369695 0.369697 H 82.925623 82.00138 v 0.554546 0.554542 h 1.047472 1.047472 v 0.369696 0.369696 h -1.420076 -1.420081 z m 16.36196,-0.03079 v -2.156562 l 0.708588,7.68e-4 c 0.95595,10e-4 1.57065,0.189475 1.873678,0.574719 0.41848,0.532013 0.26375,1.339736 -0.316081,1.650053 -0.161961,0.08668 -0.294465,0.202605 -0.294465,0.257612 0,0.05501 0.195883,0.406234 0.435296,0.780499 0.6484,1.013613 0.65883,1.074953 0.17476,1.027795 -0.361455,-0.03521 -0.472092,-0.143919 -0.949896,-0.933292 -0.37098,-0.612892 -0.615354,-0.893433 -0.778255,-0.893433 -0.213352,0 -0.237461,0.09383 -0.237461,0.924238 0,0.903703 -0.0068,0.924243 -0.308079,0.924243 h -0.308085 v -2.156562 z m 1.914934,-0.558557 c 0.218264,-0.181142 0.233117,-0.509748 0.03212,-0.710734 -0.08133,-0.08133 -0.414058,-0.147879 -0.739392,-0.147879 h -0.591511 v 0.47239 c 0,0.259815 0.04156,0.514526 0.09243,0.566025 0.128241,0.129919 0.987462,0.0019 1.206346,-0.179802 z m 4.000202,0.928253 v -1.786895 h -0.68596 c -0.67562,0 -0.68537,-0.0051 -0.64696,-0.338887 l 0.039,-0.338889 1.63283,-0.03439 1.63282,-0.03438 v 0.373273 c 0,0.365774 -0.0124,0.373273 -0.61616,0.373273 h -0.61616 v 1.786866 1.786865 h -0.3697 -0.36969 z M 20.676176,67.068354 c -3.853809,-0.454239 -5.399569,-3.553767 -3.643628,-7.306126 0.43276,-0.924786 1.639438,-2.253604 2.884888,-3.176894 3.200845,-2.372885 9.68422,-5.445633 15.563854,-7.376373 1.084442,-0.356107 2.026621,-0.697883 2.093731,-0.759503 C 37.905463,48.146054 35.98336,45.40337 34.603085,44.20875 30.856071,40.965728 27.002599,39.675395 22.018296,39.994743 18.699073,40.207408 14.616827,41.57307 11.266193,43.591718 10.18884,44.240789 10.048081,44.292835 9.500957,44.244437 8.0785227,44.11861 7.3078808,42.71764 7.9617793,41.446326 8.2266606,40.931342 8.3612938,40.834408 9.8490244,40.087538 16.37212,36.812814 23.59591,36.01217 29.156328,37.947625 c 4.735065,1.648168 8.958399,5.2689 10.582849,9.072847 0.165934,0.388565 0.373512,0.707429 0.461284,0.708584 0.08777,0.0011 1.030497,-0.216377 2.094944,-0.483408 3.802451,-0.9539 8.922262,-1.85323 12.964629,-2.27733 4.15933,-0.436369 5.580859,-0.500847 10.967656,-0.497469 5.744084,0.0036 8.202971,0.12527 14.84113,0.734358 2.647963,0.242966 3.249941,0.333471 3.512114,0.528036 0.70229,0.521186 0.849782,1.588021 0.308486,2.231321 -0.486924,0.578674 -0.923114,0.640337 -2.666246,0.37692 -2.157414,-0.326018 -6.327217,-0.806177 -9.772274,-1.125289 -2.503305,-0.231878 -3.780917,-0.274883 -8.318159,-0.279999 -3.437421,-0.0038 -6.001652,0.05124 -7.147461,0.153615 -5.538642,0.494888 -9.82179,1.183326 -14.818652,2.381829 l -1.571209,0.376857 v 1.025435 c 0,3.870763 -2.286013,7.864228 -6.438884,11.24817 -4.1303,3.365549 -9.664182,5.396056 -13.480359,4.946252 z m 4.064568,-3.446916 c 2.585283,-0.522808 4.910305,-1.454174 6.981969,-2.796861 3.867541,-2.506632 6.198516,-5.843836 6.485511,-9.285158 l 0.08238,-0.987801 -0.357186,0.08737 c -0.81803,0.200093 -4.379683,1.457083 -6.122987,2.160946 -4.635514,1.871596 -8.282098,4.078007 -10.577469,6.400029 -1.090063,1.102719 -1.579296,1.989748 -1.67382,3.03481 -0.07547,0.83441 0.144142,1.218237 0.841367,1.470478 0.680324,0.246127 2.922833,0.202823 4.340234,-0.08381 z m 18.407736,-1.85311 c -1.301092,-0.306371 -2.272952,-1.347825 -2.472454,-2.649506 -0.101525,-0.662419 0.191847,-1.776005 0.694812,-2.637365 0.509515,-0.872579 2.357174,-2.733684 3.526222,-3.551885 0.715065,-0.500464 1.015336,-0.638827 1.38636,-0.638827 0.615639,0 0.96653,0.339357 0.96653,0.934756 0,0.358585 -0.08678,0.515306 -0.460604,0.831817 -3.301829,2.795622 -4.516086,4.889995 -3.162882,5.4554 0.362964,0.151655 0.533634,0.151431 1.267898,-0.0017 1.26929,-0.264655 2.204135,-0.671383 5.990934,-2.606508 4.38329,-2.239944 4.895681,-2.417763 6.883419,-2.388793 1.1717,0.01707 1.57657,-0.02124 1.866053,-0.176599 0.46609,-0.250138 0.718895,-0.250454 1.243395,-0.0016 0.754073,0.357832 0.801491,1.242305 0.182615,3.406176 -0.152723,0.533981 -0.19003,0.831816 -0.104196,0.831816 0.32803,0 1.058871,-0.757324 2.180532,-2.259553 1.632553,-2.186468 2.426724,-2.73417 3.953198,-2.726338 0.983201,0.005 1.611024,0.303571 2.311129,1.09893 0.270964,0.307833 0.538055,0.559696 0.593536,0.559696 0.05549,0 0.645291,-0.41928 1.31069,-0.931735 1.551109,-1.194583 2.358545,-1.572599 3.486647,-1.632318 1.169697,-0.06192 2.068655,0.274104 2.77062,1.035645 0.612745,0.664755 0.774158,1.026867 1.22686,2.752347 0.343872,1.310705 0.628756,2.01573 0.876312,2.16873 0.275681,0.170379 0.764235,-0.10322 2.112064,-1.182793 2.424192,-1.941703 3.776265,-2.588462 5.460575,-2.612045 1.135173,-0.0159 1.967924,0.340992 2.702747,1.158297 0.498396,0.554327 0.582172,0.599425 1.113567,0.599425 0.768574,0 0.96941,-0.128828 1.494342,-0.95856 0.912164,-1.441811 1.569846,-1.881196 2.950853,-1.971422 2.090929,-0.136606 3.455252,1.299767 3.758289,3.956776 0.132026,1.157612 0.258053,1.357165 0.785167,1.243294 0.96274,-0.20798 2.62613,-1.281026 2.74344,-1.769779 0.13533,-0.563883 0.62519,-1.415531 1.04611,-1.818742 0.69946,-0.670018 1.48945,-0.9474 2.71944,-0.954848 l 1.0756,-0.0065 0.13993,-0.677776 c 0.36059,-1.746721 1.36824,-3.975003 2.2735,-5.027559 1.00582,-1.169467 2.46004,-1.584462 3.50138,-0.999196 0.6366,0.357791 0.86833,0.803771 0.86822,1.671031 -2.5e-4,1.739712 -1.58864,5.874357 -3.21228,8.361536 l -0.60665,0.92929 0.30712,0.139938 c 0.43096,0.196352 1.12055,-0.02665 2.35716,-0.762273 2.33282,-1.387731 3.45503,-1.331638 6.15864,0.307835 1.88861,1.145258 2.35796,1.222327 3.4256,0.562492 0.54651,-0.337763 1.00279,-0.32159 1.37304,0.04867 0.61883,0.618827 0.25833,1.297759 -0.99333,1.870792 -1.47216,0.673974 -2.64486,0.49917 -4.68094,-0.697743 -2.22928,-1.310484 -2.56085,-1.353712 -3.89935,-0.508372 -0.43802,0.276637 -1.121,0.651582 -1.51773,0.833211 -1.2375,0.566548 -2.95373,0.535852 -3.75312,-0.06713 -0.28992,-0.218687 -0.31252,-0.215551 -1.09891,0.152444 -1.42384,0.666296 -3.30278,0.598113 -4.50361,-0.163427 l -0.55468,-0.351768 -0.83931,0.428591 c -1.65536,0.845301 -2.906499,0.993442 -3.959319,0.4688 -0.856931,-0.427027 -1.170252,-0.987114 -1.43226,-2.560325 -0.293917,-1.764724 -0.704503,-2.47501 -1.38547,-2.396757 -0.270426,0.03108 -0.4737,0.22653 -0.934738,0.898772 -1.163062,1.695883 -1.706719,2.036899 -3.247291,2.036899 -0.966936,0 -0.991914,0.0078 -1.409065,0.439442 -0.598448,0.61925 -1.09163,0.896704 -1.856638,1.044505 -1.482711,0.286458 -2.852454,-0.298347 -3.46824,-1.480752 -0.193221,-0.371019 -0.363707,-0.68698 -0.378867,-0.702136 -0.01511,-0.01516 -0.608106,0.4425 -1.317674,1.017015 -1.611053,1.304431 -2.283176,1.653639 -3.182771,1.653639 -1.6274,0 -2.49409,-1.139415 -3.351475,-4.40607 -0.207773,-0.791634 -0.348022,-1.085387 -0.632481,-1.324744 -0.72513,-0.610156 -1.467498,-0.376267 -3.119321,0.982766 -1.274354,1.048467 -1.794793,1.29755 -2.711107,1.29755 -0.926332,0 -1.64596,-0.341115 -2.234277,-1.059074 -0.295735,-0.3609 -0.54178,-0.542942 -0.733849,-0.542942 -0.429118,0 -1.075827,0.63514 -1.995878,1.960185 -1.600013,2.304308 -2.564801,2.996773 -4.278403,3.070773 -0.890367,0.03845 -1.030225,0.01234 -1.443964,-0.269581 l -0.458111,-0.312154 -0.527747,0.291833 c -1.327045,0.733831 -2.954136,0.865351 -4.014325,0.324483 -0.630344,-0.321576 -1.234298,-1.116267 -1.337142,-1.759422 -0.0415,-0.259479 -0.120189,-0.47178 -0.174879,-0.47178 -0.05469,0 -0.893283,0.412289 -1.863539,0.9162 -3.821045,1.98449 -6.13673,2.662473 -7.775669,2.276548 z m 13.640888,-2.77673 c 1.049909,-0.357738 1.928638,-1.470016 1.585043,-2.006301 -0.183254,-0.286012 -1.794229,-0.259495 -2.361109,0.03886 -0.654377,0.344412 -0.999733,0.787428 -0.999733,1.282436 0,0.85318 0.601392,1.085161 1.775799,0.684999 z M 87.890004,58.56636 c 0.797023,-0.277843 0.998107,-1.133099 0.405693,-1.725508 -0.985331,-0.985336 -2.694235,0.221644 -1.906386,1.346461 0.333877,0.476679 0.84807,0.606553 1.500693,0.379047 z m 19.357416,-0.117085 c 0.45768,-0.207671 0.52674,-0.285474 0.46251,-0.52103 -0.0415,-0.152298 -0.11104,-0.568041 -0.15447,-0.923873 l -0.079,-0.646969 -0.56839,2.47e-4 c -0.71923,2.46e-4 -1.34728,0.313134 -1.70582,0.849848 -0.36075,0.540009 -0.36304,1.049345 -0.006,1.299534 0.38206,0.267608 1.39699,0.239053 2.05099,-0.0577 z m 4.25052,-6.867538 c 0.52129,-1.528339 0.56156,-1.837289 0.1806,-1.385936 -0.64914,0.769123 -1.84376,3.918514 -1.81655,4.789028 0.0145,0.46161 1.05866,-1.710584 1.63595,-3.403092 z m -92.407015,2.649914 c -0.425424,-0.365959 -0.419431,-0.68716 0.0469,-2.513694 0.622286,-2.437366 1.240374,-5.701219 1.358908,-7.175789 0.120949,-1.50464 0.257363,-1.83949 0.911987,-2.238641 0.95493,-0.582258 2.265734,-0.06578 2.554467,1.006498 0.09743,0.361832 0.07003,0.712501 -0.125838,1.610043 -0.525535,2.408277 -2.940493,8.946173 -3.462256,9.373198 -0.361727,0.296047 -0.898322,0.2703 -1.284172,-0.06162 z m 28.824478,-2.483126 c -0.6882,-0.688201 -0.539465,-1.662613 0.321764,-2.107972 1.01899,-0.52694 2.216816,0.175953 2.216816,1.300843 0,0.277104 -0.11986,0.508 -0.418989,0.807129 -0.369063,0.369063 -0.495344,0.418988 -1.059795,0.418988 -0.564451,0 -0.690732,-0.04992 -1.059796,-0.418988 z m 15.06717,-10.75405 c -0.04516,-0.04519 -0.08215,-0.877002 -0.08215,-1.848481 v -1.766326 h -0.616159 c -0.575087,0 -0.616162,-0.02054 -0.616162,-0.30808 v -0.30808 h 1.663635 1.663629 v 0.30164 c 0,0.276998 -0.05284,0.304682 -0.646968,0.338888 l -0.646962,0.03725 -0.03412,1.817673 c -0.03389,1.806199 -0.03589,1.817673 -0.318351,1.817673 -0.156336,0 -0.32122,-0.03697 -0.366399,-0.08216 z m 4.107739,-2.074407 v -2.15656 h 0.308079 c 0.299271,0 0.308079,0.02465 0.308079,0.862624 v 0.862624 h 0.985857 0.985857 v -0.862624 -0.862624 h 0.369694 0.369699 v 2.15656 2.156562 h -0.369699 -0.369694 v -0.991041 -0.99104 l -0.955047,0.03599 -0.955052,0.03599 -0.03601,0.955049 c -0.03477,0.922443 -0.04634,0.955048 -0.33889,0.955048 H 67.09029 Z m 5.791902,0 v -2.15656 h 1.355556 1.355551 v 0.30808 c 0,0.302945 -0.01647,0.30808 -0.985857,0.30808 h -0.985857 v 0.554544 0.554544 h 0.924242 c 0.903705,0 0.924237,0.0068 0.924237,0.308081 0,0.301234 -0.02054,0.30808 -0.924237,0.30808 h -0.924242 v 0.61616 0.61616 h 1.047472 1.047471 v 0.369696 0.369697 h -1.417165 -1.417171 z"
         id="path1945"
         sodipodi:nodetypes="cccccccccsssscsssssssscsscssssscsssssccsssssssssscsscsscssscssssssccssscsssssscssscssssscccsscccsssscssccccccccccccssccccccccscccsccssssssscssssscccsssssccccssccsssssccssscssssccccssscsssccccccccccccccccccccccccccccssssssssscccssscscssccsccccssccccccssssssssssssscsssssssscsscsssssscsssssscssssscscssscssscsssssssssssssssssscssscscsssssssssssscssssssssscssssssssssscsssssccssssssssssccsccscccsscsssssssssssssssscscsscccssccsccccsscccccccccccccccssccccccsscccssscccccccccc" />
      <g
         aria-label="LOS ANGELES"
         transform="matrix(0.60507944,0,0,0.57597468,3.7450273,32.456956)"
         id="text2060"
         style="font-style:normal;font-weight:normal;font-size:12.0958px;line-height:1.25;font-family:sans-serif;fill:#ffffff;fill-opacity:1;stroke:none;stroke-width:0.302395">
        <path
           d="M 75.985812,89.053833 H 71.591634 V 80.58441 h 0.992234 v 7.571688 h 3.401944 z"
           style="font-style:normal;font-variant:normal;font-weight:normal;font-stretch:normal;font-family:Gadugi;-inkscape-font-specification:Gadugi;fill:#ffffff;stroke-width:0.302395"
           id="path2077" />
        <path
           d="m 80.698921,89.195581 q -1.801376,0 -2.888108,-1.187137 -1.080826,-1.187137 -1.080826,-3.088918 0,-2.043529 1.10445,-3.260196 1.104451,-1.216667 3.006232,-1.216667 1.754127,0 2.823141,1.18123 1.07492,1.181231 1.07492,3.088918 0,2.073059 -1.098545,3.277915 -1.098544,1.204855 -2.941264,1.204855 z m 0.07087,-7.855183 q -1.33479,0 -2.167558,0.962703 -0.832767,0.962703 -0.832767,2.527833 0,1.56513 0.809143,2.521927 0.815049,0.950891 2.120308,0.950891 1.393852,0 2.197089,-0.909548 0.803237,-0.909547 0.803237,-2.545552 0,-1.677347 -0.779612,-2.592801 -0.779612,-0.915453 -2.14984,-0.915453 z"
           style="font-style:normal;font-variant:normal;font-weight:normal;font-stretch:normal;font-family:Gadugi;-inkscape-font-specification:Gadugi;fill:#ffffff;stroke-width:0.302395"
           id="path2079" />
        <path
           d="m 86.008553,88.711276 v -1.169418 q 0.200809,0.177185 0.478398,0.318932 0.283495,0.141748 0.590615,0.242152 0.313026,0.0945 0.626052,0.147654 0.313026,0.05316 0.578803,0.05316 0.915454,0 1.364322,-0.336651 0.454773,-0.342557 0.454773,-0.980421 0,-0.342557 -0.15356,-0.596522 -0.147653,-0.253964 -0.41343,-0.46068 -0.265777,-0.212621 -0.631959,-0.401618 -0.360275,-0.194903 -0.779612,-0.407525 -0.442961,-0.224433 -0.826861,-0.454773 -0.3839,-0.23034 -0.667395,-0.507929 -0.283496,-0.27759 -0.448868,-0.626053 -0.159466,-0.354369 -0.159466,-0.826861 0,-0.578803 0.253964,-1.004046 0.253965,-0.431149 0.667396,-0.708738 0.41343,-0.277589 0.939078,-0.413431 0.531554,-0.135841 1.080826,-0.135841 1.252104,0 1.825001,0.301213 v 1.116263 q -0.750081,-0.519741 -1.925406,-0.519741 -0.324838,0 -0.649677,0.07087 -0.324838,0.06497 -0.578802,0.218527 -0.253965,0.15356 -0.413431,0.395712 -0.159466,0.242153 -0.159466,0.590616 0,0.324838 0.118123,0.561084 0.124029,0.236246 0.360275,0.431149 0.236246,0.194903 0.572897,0.377994 0.342557,0.183091 0.785518,0.401619 0.454774,0.224433 0.862298,0.472492 0.407525,0.248058 0.714645,0.549272 0.30712,0.301214 0.484304,0.667395 0.183091,0.366182 0.183091,0.838674 0,0.626052 -0.248058,1.063107 -0.242153,0.431149 -0.661489,0.702832 -0.413431,0.271683 -0.956797,0.389806 -0.543366,0.12403 -1.145794,0.12403 -0.200809,0 -0.496116,-0.03544 -0.295308,-0.02953 -0.602428,-0.0945 -0.30712,-0.05906 -0.584709,-0.147654 -0.271683,-0.0945 -0.437055,-0.206715 z"
           style="font-style:normal;font-variant:normal;font-weight:normal;font-stretch:normal;font-family:Gadugi;-inkscape-font-specification:Gadugi;fill:#ffffff;stroke-width:0.302395"
           id="path2081" />
        <path
           d="m 102.69934,89.053833 h -1.09854 l -0.89774,-2.374273 h -3.590941 l -0.84458,2.374273 h -1.10445 l 3.248384,-8.469423 h 1.02767 z m -2.32112,-3.266102 -1.328883,-3.60866 q -0.06497,-0.177184 -0.129935,-0.56699 h -0.02363 q -0.05906,0.360275 -0.135841,0.56699 l -1.317072,3.60866 z"
           style="font-style:normal;font-variant:normal;font-weight:normal;font-stretch:normal;font-family:Gadugi;-inkscape-font-specification:Gadugi;fill:#ffffff;stroke-width:0.302395"
           id="path2083" />
        <path
           d="m 110.77305,89.053833 h -1.21667 l -4.35874,-6.750732 q -0.16537,-0.253965 -0.27168,-0.531554 h -0.0354 q 0.0473,0.271683 0.0473,1.163512 v 6.118774 h -0.99223 V 80.58441 h 1.28754 l 4.24062,6.644422 q 0.26577,0.413431 0.34255,0.566991 h 0.0236 q -0.0591,-0.366182 -0.0591,-1.246199 V 80.58441 h 0.99223 z"
           style="font-style:normal;font-variant:normal;font-weight:normal;font-stretch:normal;font-family:Gadugi;-inkscape-font-specification:Gadugi;fill:#ffffff;stroke-width:0.302395"
           id="path2085" />
        <path
           d="m 119.32516,88.47503 q -1.27573,0.720551 -2.83495,0.720551 -1.81319,0 -2.93536,-1.169419 -1.11626,-1.169418 -1.11626,-3.094823 0,-1.966749 1.24029,-3.22476 1.2462,-1.263916 3.15388,-1.263916 1.38204,0 2.32112,0.448867 v 1.098545 q -1.02767,-0.649677 -2.43333,-0.649677 -1.42339,0 -2.33293,0.980421 -0.90955,0.980421 -0.90955,2.539646 0,1.606473 0.84458,2.527833 0.84458,0.915454 2.29159,0.915454 0.99223,0 1.71869,-0.395713 v -2.374273 h -1.85454 v -0.897735 h 2.84677 z"
           style="font-style:normal;font-variant:normal;font-weight:normal;font-stretch:normal;font-family:Gadugi;-inkscape-font-specification:Gadugi;fill:#ffffff;stroke-width:0.302395"
           id="path2087" />
        <path
           d="m 125.78058,89.053833 h -4.48867 V 80.58441 h 4.29967 v 0.897735 h -3.30744 v 2.817235 h 3.05939 v 0.891829 h -3.05939 v 2.964889 h 3.49644 z"
           style="font-style:normal;font-variant:normal;font-weight:normal;font-stretch:normal;font-family:Gadugi;-inkscape-font-specification:Gadugi;fill:#ffffff;stroke-width:0.302395"
           id="path2089" />
        <path
           d="m 131.80486,89.053833 h -4.39418 V 80.58441 h 0.99223 v 7.571688 h 3.40195 z"
           style="font-style:normal;font-variant:normal;font-weight:normal;font-stretch:normal;font-family:Gadugi;-inkscape-font-specification:Gadugi;fill:#ffffff;stroke-width:0.302395"
           id="path2091" />
        <path
           d="m 137.59289,89.053833 h -4.48868 V 80.58441 h 4.29968 v 0.897735 h -3.30745 v 2.817235 h 3.05939 v 0.891829 h -3.05939 v 2.964889 h 3.49645 z"
           style="font-style:normal;font-variant:normal;font-weight:normal;font-stretch:normal;font-family:Gadugi;-inkscape-font-specification:Gadugi;fill:#ffffff;stroke-width:0.302395"
           id="path2093" />
        <path
           d="m 138.82728,88.711276 v -1.169418 q 0.20081,0.177185 0.4784,0.318932 0.28349,0.141748 0.59061,0.242152 0.31303,0.0945 0.62605,0.147654 0.31303,0.05316 0.57881,0.05316 0.91545,0 1.36432,-0.336651 0.45477,-0.342557 0.45477,-0.980421 0,-0.342557 -0.15356,-0.596522 -0.14765,-0.253964 -0.41343,-0.46068 -0.26578,-0.212621 -0.63196,-0.401618 -0.36027,-0.194903 -0.77961,-0.407525 -0.44296,-0.224433 -0.82686,-0.454773 -0.3839,-0.23034 -0.6674,-0.507929 -0.28349,-0.27759 -0.44886,-0.626053 -0.15947,-0.354369 -0.15947,-0.826861 0,-0.578803 0.25396,-1.004046 0.25397,-0.431149 0.6674,-0.708738 0.41343,-0.277589 0.93908,-0.413431 0.53155,-0.135841 1.08082,-0.135841 1.25211,0 1.825,0.301213 v 1.116263 q -0.75008,-0.519741 -1.9254,-0.519741 -0.32484,0 -0.64968,0.07087 -0.32484,0.06497 -0.5788,0.218527 -0.25397,0.15356 -0.41343,0.395712 -0.15947,0.242153 -0.15947,0.590616 0,0.324838 0.11813,0.561084 0.12402,0.236246 0.36027,0.431149 0.23625,0.194903 0.5729,0.377994 0.34255,0.183091 0.78552,0.401619 0.45477,0.224433 0.86229,0.472492 0.40753,0.248058 0.71465,0.549272 0.30712,0.301214 0.4843,0.667395 0.18309,0.366182 0.18309,0.838674 0,0.626052 -0.24805,1.063107 -0.24216,0.431149 -0.66149,0.702832 -0.41343,0.271683 -0.9568,0.389806 -0.54337,0.12403 -1.14579,0.12403 -0.20081,0 -0.49612,-0.03544 -0.29531,-0.02953 -0.60243,-0.0945 -0.30712,-0.05906 -0.58471,-0.147654 -0.27168,-0.0945 -0.43705,-0.206715 z"
           style="font-style:normal;font-variant:normal;font-weight:normal;font-stretch:normal;font-family:Gadugi;-inkscape-font-specification:Gadugi;fill:#ffffff;stroke-width:0.302395"
           id="path2095" />
      </g>
    </g>
  </g>
</svg>
